<?xml version="1.0" encoding="utf-8"?><svg xml:space="preserve" viewBox="0 0 100 100" y="0" x="0" xmlns="http://www.w3.org/2000/svg" id="Layer_1" version="1.1" width="200px" height="200px" xmlns:xlink="http://www.w3.org/1999/xlink" style="width:100%;height:100%;background-size:initial;background-repeat-y:initial;background-repeat-x:initial;background-position-y:initial;background-position-x:initial;background-origin:initial;background-color:initial;background-clip:initial;background-attachment:initial;animation-play-state:paused" ><g class="ldl-scale" style="transform-origin:50% 50%;transform:rotate(0deg) scale(0.8, 0.8);animation-play-state:paused" ><path fill="#e15c64" d="M26.8 39.8h-.5c.2-3.4 1.2-7 3-10.5 1.9-3.7 4.7-7.1 8.3-10 3.6-2.8 8-5.1 12.9-6.3-4.9 0-9.8 1-14.3 2.9S27.5 20.6 24 24c-3.5 3.5-6.3 7.6-8.1 12.2-1.9 4.5-2.8 9.4-2.9 14.3v3.8c.4 7.2 6.4 12.9 13.7 12.9 7.6 0 13.7-6.2 13.7-13.8.2-7.4-6-13.6-13.6-13.6z" style="fill:rgb(225, 92, 100);animation-play-state:paused" ></path>
<path fill="#f47e5f" d="M76.7 61.6c-3.8-6.6-12.2-8.8-18.8-5-6.6 3.8-8.8 12.2-5 18.8.1.1.2.3.2.4-3.1 1.5-6.7 2.5-10.6 2.7-4.1.2-8.5-.5-12.8-2.2-4.3-1.7-8.4-4.4-11.9-8 2.5 4.2 5.8 8 9.6 11 3.9 3 8.4 5.2 13.1 6.5 4.7 1.3 9.7 1.6 14.6 1 4.9-.8 9.7-2.5 13.9-4.9l2.6-1.5c.2-.1.5-.3.7-.5 6.1-4 8-12 4.4-18.3z" style="fill:rgb(244, 126, 95);animation-play-state:paused" ></path>
<path fill="#f7b26a" d="M85.6 40.6c-1.3-4.7-3.5-9.2-6.5-13.1-3-3.9-6.8-7.2-11-9.6l-2.6-1.5c-.2-.1-.5-.3-.7-.4-6.5-3.2-14.4-.9-18 5.4-3.8 6.6-1.5 15 5 18.8 6.6 3.8 15 1.5 18.8-5 .1-.1.1-.3.2-.4 2.9 1.9 5.5 4.6 7.6 7.8 2.2 3.5 3.8 7.6 4.5 12.2.7 4.5.4 9.5-1 14.3 2.4-4.3 4.1-9 4.7-13.9.6-4.9.3-9.9-1-14.6z" style="fill:rgb(247, 178, 106);animation-play-state:paused" ></path>
<metadata xmlns:d="https://loading.io/stock/" style="animation-play-state:paused" ><d:name style="animation-play-state:paused" >spinner</d:name>


<d:tags style="animation-play-state:paused" >oni,rotate,sharingan,spin,spiral,vortex,spinner</d:tags>


<d:license style="animation-play-state:paused" >by</d:license>


<d:slug style="animation-play-state:paused" >f5y8ea</d:slug></metadata></g><!-- generated by https://loading.io/ --></svg>